<?xml version="1.0" encoding="iso-8859-1"?>
<!-- Generator: Adobe Illustrator 22.1.0, SVG Export Plug-In . SVG Version: 6.00 Build 0)  -->
<svg version="1.1" id="Layer_1" xmlns="http://www.w3.org/2000/svg" xmlns:xlink="http://www.w3.org/1999/xlink" x="0px" y="0px"	 width="64" height="64" viewBox="0 0 64 64" style="enable-background:new 0 0 64 64;" xml:space="preserve">
<g id="icon-m-clipboard">
	<rect id="icon-m-clipboard_1_" style="opacity:0;fill:#FFFFFF;" width="64" height="64"/>
	<path style="opacity:0.6;fill:#FFFFFF;" d="M35.403,22.417h-9.251c-1.295,0-2.349-1.054-2.349-2.349v-2.632
		c0-1.295,1.054-2.349,2.349-2.349h9.251c1.296,0,2.35,1.054,2.35,2.349v2.632C37.753,21.363,36.699,22.417,35.403,22.417z
		 M26.152,17.086c-0.189,0-0.349,0.16-0.349,0.349v2.632c0,0.189,0.16,0.349,0.349,0.349h9.251c0.189,0,0.35-0.16,0.35-0.349v-2.632
		c0-0.189-0.16-0.349-0.35-0.349H26.152z"/>
	<path style="fill:#FFFFFF;" d="M46.523,51.613H26.092c-1.343,0-2.435-1.093-2.435-2.436V26.966c0-1.343,1.092-2.435,2.435-2.435
		h20.431c1.343,0,2.436,1.092,2.436,2.435v22.212C48.959,50.521,47.866,51.613,46.523,51.613z M26.092,26.531
		c-0.236,0-0.435,0.199-0.435,0.435v22.212c0,0.236,0.199,0.436,0.435,0.436h20.431c0.236,0,0.436-0.199,0.436-0.436V26.966
		c0-0.236-0.199-0.435-0.436-0.435H26.092z"/>
	<path style="opacity:0.6;fill:#FFFFFF;" d="M42.152,17.751h-4.408v2h4.408c0.439,0,0.798,0.358,0.798,0.797v4.549
		c0,0.552,0.447,1,1,1s1-0.448,1-1v-4.549C44.95,19.006,43.695,17.751,42.152,17.751z"/>
	<path style="opacity:0.6;fill:#FFFFFF;" d="M23.862,45.533h-3.721c-0.359,0-0.662-0.303-0.662-0.662V20.382
		c0-0.358,0.303-0.662,0.662-0.662h3.653v-2h-3.653c-1.468,0-2.662,1.194-2.662,2.662v24.489c0,1.468,1.194,2.662,2.662,2.662h3.721
		c0.553,0,1-0.448,1-1S24.415,45.533,23.862,45.533z"/>
</g>
</svg>
